<?xml version="1.0" standalone="no"?>
<!DOCTYPE svg PUBLIC "-//W3C//DTD SVG 20010904//EN"
 "http://www.w3.org/TR/2001/REC-SVG-20010904/DTD/svg10.dtd">
<svg version="1.0" xmlns="http://www.w3.org/2000/svg"
 width="220.000000pt" height="77.000000pt" viewBox="0 0 220.000000 77.000000"
 preserveAspectRatio="xMidYMid meet">

<g transform="translate(0.000000,77.000000) scale(0.100000,-0.100000)"
fill="#000000" stroke="none">
<path d="M1230 383 l0 -143 150 0 150 0 0 25 0 25 -125 0 -125 0 0 30 0 29 98
3 97 3 3 28 3 27 -100 0 -101 0 0 30 0 30 125 0 125 0 0 24 0 25 -150 3 -150
3 0 -142z"/>
<path d="M850 380 l0 -140 25 0 c23 0 25 3 25 50 l0 50 125 0 c110 0 127 2
144 19 31 31 37 84 14 123 l-19 33 -157 3 -157 3 0 -141z m285 50 l0 -35 -117
-3 -118 -3 0 41 0 41 118 -3 117 -3 0 -35z"/>
<path d="M1570 381 l0 -141 25 0 c25 0 25 1 25 90 0 50 4 90 8 90 5 0 34 -38
66 -85 31 -47 59 -85 64 -85 4 0 29 34 55 75 74 113 77 114 77 6 0 -90 0 -91
25 -91 l25 0 0 140 0 140 -29 0 c-25 0 -37 -12 -92 -92 -58 -85 -64 -90 -75
-72 -96 143 -109 159 -142 162 l-32 3 0 -140z"/>
<path d="M160 498 c3 -2 49 -45 102 -96 l97 -91 35 22 c36 23 47 56 24 75 -18
14 -273 103 -258 90z"/>
<path d="M660 479 c-184 -65 -190 -68 -190 -104 0 -30 3 -33 35 -39 24 -5 33
-11 28 -19 -8 -14 140 119 176 157 29 30 24 31 -49 5z"/>
</g>
</svg>
